<svg xmlns="http://www.w3.org/2000/svg" viewBox="0 0 900 900" role="img" aria-label="Univers homme Maison Jiya montre portefeuille bracelet"><defs><radialGradient id="bg" cx="48%" cy="38%" r="80%"><stop stop-color="#2f2114"/><stop offset=".48" stop-color="#0c0b09"/><stop offset="1" stop-color="#020202"/></radialGradient><linearGradient id="g" x1="0" y1="0" x2="1" y2="1"><stop stop-color="#fff0ad"/><stop offset=".3" stop-color="#d7a652"/><stop offset=".62" stop-color="#82551a"/><stop offset=".83" stop-color="#e5c373"/><stop offset="1" stop-color="#6d4718"/></linearGradient><linearGradient id="steel" x1="0" x2="1"><stop stop-color="#0e0e0e"/><stop offset=".5" stop-color="#393939"/><stop offset="1" stop-color="#080808"/></linearGradient><filter id="s"><feDropShadow dy="24" stdDeviation="18" flood-opacity=".78"/></filter></defs><rect width="900" height="900" fill="url(#bg)"/><g opacity=".18" fill="none" stroke="#d0a153"><path d="M-40 640c180-110 270 100 450-5s320-130 550-45"/><path d="M10 125c170 95 280-15 470 45s270 55 410-35"/></g><ellipse cx="420" cy="762" rx="340" ry="84" fill="#080706" stroke="#5c4325" stroke-width="4"/><ellipse cx="420" cy="738" rx="340" ry="73" fill="#16110b" stroke="#b18440" stroke-width="4"/><g filter="url(#s)" transform="translate(275 485)"><rect x="-45" y="-230" width="90" height="150" rx="38" fill="url(#steel)"/><rect x="-45" y="80" width="90" height="160" rx="38" fill="url(#steel)"/><circle r="145" fill="#080808" stroke="url(#g)" stroke-width="23"/><circle r="116" fill="#111" stroke="#d4a853" stroke-width="3"/><g stroke="#e4c575" stroke-width="5"><path d="M0-96v18M0 96V78M-96 0h18M96 0H78"/></g><path d="M0 0l-56-33M0 0l31-70" stroke="#efd786" stroke-width="7" stroke-linecap="round"/><circle r="7" fill="#e1ba64"/><text y="54" text-anchor="middle" font-family="Georgia,serif" font-size="26" letter-spacing="5" fill="#e5cb8d">JIYA</text></g><g filter="url(#s)" transform="translate(610 590) rotate(-8)"><rect x="-180" y="-105" width="360" height="210" rx="27" fill="#101010" stroke="#6c5b41" stroke-width="4"/><path d="M-154-78H154V78H-154Z" fill="none" stroke="#7d6a49" stroke-opacity=".65" stroke-width="3" stroke-dasharray="7 11"/><circle cx="92" cy="28" r="42" fill="#080808" stroke="url(#g)" stroke-width="4"/><text x="92" y="48" text-anchor="middle" font-family="Georgia,serif" font-size="54" fill="#d6a650">J</text></g><path d="M475 713c70-65 150-75 223-21 29 21 48 50 57 82" fill="none" stroke="url(#g)" stroke-width="23" stroke-linecap="round" stroke-dasharray="6 23"/><text x="64" y="82" font-family="Georgia,serif" font-size="46" letter-spacing="7" fill="#e8d19a">JIYA</text><text x="66" y="120" font-family="Georgia,serif" font-size="24" font-style="italic" fill="#ba8e47">Maison Jiya</text></svg>